<svg version="1" xmlns="http://www.w3.org/2000/svg" width="1248" height="1248" viewBox="0 0 936.000000 936.000000"><path d="M209.9 1.5c-32 5-59.1 19.2-81.3 42.5-17.9 18.9-29.9 41.6-35.7 67.5-2.1 9.4-2.2 13-2.6 57.2l-.5 47.3h756.4l-.5-47.3c-.4-44.2-.5-47.8-2.6-57.2-6.2-27.7-18.4-49.9-38.5-70.1-20.1-20-42-32.1-70.1-38.6l-10-2.3-253-.1C263.1.2 217 .4 209.9 1.5zM432 360.7c-32.5 3.5-61.1 17.3-84.6 40.7-20.1 20.2-32.3 42.4-38.5 70.1-2.1 9.4-2.2 13-2.6 57.3l-.5 47.2 209.4-.3 209.3-.3 9.2-2.1c29.4-7 50.7-18.6 70.9-38.8 20.1-20.1 31.9-41.7 38.6-70.8 1.9-8.5 2.1-12.8 2.5-56.5l.5-47.2-205.4.2c-112.9 0-206.9.3-208.8.5zM375.8 722c-17 3.6-31.2 11.3-43.8 24-12.8 12.7-20.5 26.8-24.1 44.3-1.7 8.5-1.9 14.3-1.9 77.4V936h67.9c54.9 0 69.4-.3 75.4-1.4 36.9-7.1 64.9-35.1 71.2-71.1 1.2-7.3 1.5-20.4 1.5-76.1V720l-68.7.1c-62.7 0-69.6.2-77.5 1.9z"/></svg>