<?xml version="1.0" encoding="UTF-8"?><!DOCTYPE svg PUBLIC "-//W3C//DTD SVG 1.1//EN" "http://www.w3.org/Graphics/SVG/1.1/DTD/svg11.dtd"><svg xmlns="http://www.w3.org/2000/svg" xmlns:xlink="http://www.w3.org/1999/xlink"><defs/><symbol id="logo" viewBox="0 0 189 234">
<path d="M35.1,0H153.9A35.1,35.1,0,0,1,189,35.1V54a0,0,0,0,1,0,0H0a0,0,0,0,1,0,0V35.1A35.1,35.1,0,0,1,35.1,0Z"/><path d="M89.1,90H189a0,0,0,0,1,0,0v18.9A35.1,35.1,0,0,1,153.9,144H54a0,0,0,0,1,0,0V125.1A35.1,35.1,0,0,1,89.1,90Z"/><path d="M75.95,180H108a0,0,0,0,1,0,0v32.05A21.95,21.95,0,0,1,86.05,234H54a0,0,0,0,1,0,0V201.95A21.95,21.95,0,0,1,75.95,180Z"/>
</symbol></svg>